<?xml version="1.0" encoding="UTF-8" standalone="no"?><!DOCTYPE svg PUBLIC "-//W3C//DTD SVG 1.1//EN" "http://www.w3.org/Graphics/SVG/1.1/DTD/svg11.dtd"><svg width="100%" height="100%" viewBox="0 0 512 512" version="1.1" xmlns="http://www.w3.org/2000/svg" xmlns:xlink="http://www.w3.org/1999/xlink" xml:space="preserve" xmlns:serif="http://www.serif.com/" style="fill-rule:evenodd;clip-rule:evenodd;stroke-linejoin:round;stroke-miterlimit:1.41421;"><path d="M454.881,51l0,141.882l-42.273,0l-0.338,-71.942l-70.098,68.861c22.084,28.127 35.231,63.576 35.231,102.073c0,91.513 -74.297,165.81 -165.81,165.81c-91.513,0 -165.81,-74.297 -165.81,-165.81c0,-91.513 74.297,-165.81 165.81,-165.81c38.383,0 73.738,13.07 101.828,35.039l68.866,-70.362l-72.144,0.066l-0.143,-39.807l144.881,0Zm-243.288,116.516c68.635,0 124.358,55.723 124.358,124.358c0,68.635 -55.723,124.358 -124.358,124.358c-68.635,0 -124.358,-55.723 -124.358,-124.358c0,-68.635 55.723,-124.358 124.358,-124.358Z" style="fill:#333;"/></svg>