<?xml version="1.0" encoding="UTF-8" standalone="no"?><!DOCTYPE svg PUBLIC "-//W3C//DTD SVG 1.1//EN" "http://www.w3.org/Graphics/SVG/1.1/DTD/svg11.dtd"><svg width="100%" height="100%" viewBox="0 0 512 512" version="1.1" xmlns="http://www.w3.org/2000/svg" xmlns:xlink="http://www.w3.org/1999/xlink" xml:space="preserve" xmlns:serif="http://www.serif.com/" style="fill-rule:evenodd;clip-rule:evenodd;stroke-linejoin:round;stroke-miterlimit:1.41421;"><path d="M234.673,349.879c-83.287,-9.628 -148.019,-80.484 -148.019,-166.34c0,-92.449 75.057,-167.506 167.506,-167.506c92.449,0 167.506,75.057 167.506,167.506c0,85.589 -64.329,156.27 -147.273,166.245l0,47.822l51.381,0l0,39.72l-51.381,0l0,50.652l-39.72,0l0,-50.652l-51.381,0l0,-39.72l51.381,0l0,-47.727Zm19.487,-286.944c66.564,0 120.605,54.041 120.605,120.604c0,66.564 -54.041,120.605 -120.605,120.605c-66.563,0 -120.604,-54.041 -120.604,-120.605c0,-66.563 54.041,-120.604 120.604,-120.604Z" style="fill:#333;"/></svg>